<?xml version="1.0" encoding="UTF-8"?>
<svg id="Vector_Logos" data-name="Vector Logos" xmlns="http://www.w3.org/2000/svg" viewBox="0 0 524.09 524.09">
  <defs>
    <style>
      .cls-1 {
        fill: #f2f2f2;
      }

      .cls-2 {
        fill: #142b30;
      }
    </style>
  </defs>
  <g id="Layer_1" data-name="Layer 1">
    <rect class="cls-1" x="0" width="524.09" height="524.09"/>
  </g>
  <g>
    <g>
      <path class="cls-2" d="M269.84,276.03c0,4.87-4.19,8.28-10.18,8.28-2.78,0-7.44-.64-7.44-4.92,0-3.61,3.43-4.29,8.66-4.93,3.39-.42,6.87-.86,8.96-2.46v4.04ZM261.09,266.87c-.44.05-.9.1-1.36.15-8.79,1.02-17.79,3.37-17.87,12.97-.03,3.29,1.08,6.16,3.22,8.32,2.83,2.86,7.23,4.36,12.75,4.36,6.17,0,10.68-2.01,13.42-5.99.78,3.32,3.59,5.15,7.92,5.15h4.91v-8.29h-2.85c-1.12,0-1.34-.43-1.34-1.11v-18.28c0-9.37-6.73-15.19-17.56-15.19s-18.67,6.19-19.54,15.05l-.07.7h10.34l.07-.56c.5-3.91,4.13-6.53,9.05-6.53s7.6,2.22,7.67,5.9c-.05,2.29-3.2,2.74-8.75,3.34"/>
      <path class="cls-2" d="M311.59,282.98h-5.25c-2.99,0-4.5-1.58-4.5-4.68v-19.11h10.52v-8.87h-10.52v-13.75h-5.13c-2.88,0-5.23,2.32-5.23,5.16v8.58h-7.14v8.87h7.14v19.72c0,8.34,5.06,12.94,14.24,12.94h5.87v-8.87Z"/>
      <path class="cls-2" d="M327.35,266.85c.07-5.08,3.99-8.63,9.52-8.63,4.41,0,7.15,2.61,7.15,6.8v26.82h10.29v-27.28c0-9.38-5.86-15.44-14.92-15.44-4.65,0-9.03,1.68-12.04,4.55v-20.04h-5.1c-2.86,0-5.19,2.31-5.19,5.16v53.03h10.29v-24.99Z"/>
      <path class="cls-2" d="M369.21,270.62c0-7.71,4.3-12.69,10.95-12.69s10.87,4.98,10.87,12.69c0,8.13-4.27,13.38-10.87,13.38s-10.95-5.25-10.95-13.38M401.45,270.62c0-12.96-8.56-21.66-21.29-21.66s-21.37,8.71-21.37,21.66c0,6.44,1.94,11.96,5.62,15.97,3.82,4.17,9.27,6.38,15.75,6.38,12.93,0,21.29-8.77,21.29-22.35"/>
      <path class="cls-2" d="M428.78,248.96c-5.36,0-10.29,2.29-13.25,6.07l-.62-4.85h-8.46v41.66h10.29v-25.09c.07-5.1,3.89-8.67,9.29-8.67,4.55,0,7.38,2.62,7.38,6.83v26.93h10.29v-27.38c0-9.42-5.86-15.5-14.92-15.5"/>
      <g>
        <path class="cls-2" d="M162.84,233.35c-3.24,0-5.78,2.54-5.78,5.78s2.54,5.84,5.78,5.84,5.78-2.51,5.78-5.84-2.48-5.78-5.78-5.78"/>
        <path class="cls-2" d="M140.02,238.8v53.04h10.23v-58.19h-5.08c-2.84,0-5.14,2.3-5.14,5.14"/>
        <path class="cls-2" d="M157.73,255.49v36.35h10.23v-41.49h-5.08c-2.84,0-5.14,2.3-5.14,5.14"/>
        <path class="cls-2" d="M223.34,249.13c-5.73,0-10.99,2.65-13.77,6.84-2.45-4.36-6.88-6.84-12.34-6.84s-10.04,2.18-13,5.78l-.56-4.57h-8.41v41.49h10.23v-24.99c.07-5.21,3.88-8.71,9.46-8.71,3.96,0,6.42,2.58,6.42,6.73v26.97h10.23v-24.99c.07-5.21,3.87-8.71,9.46-8.71,3.96,0,6.42,2.58,6.42,6.73v26.97h10.3v-27.42c0-9.14-5.81-15.28-14.45-15.28"/>
        <path class="cls-2" d="M107.99,282.23c-9.78,0-17.73-7.95-17.73-17.73s7.95-17.73,17.73-17.73c7.13,0,13.29,4.23,16.1,10.31h10.95c-3.26-11.88-14.15-20.63-27.05-20.63-15.47,0-28.05,12.58-28.05,28.05s12.58,28.05,28.05,28.05c13.53,0,24.85-9.63,27.48-22.39h-10.67c-2.37,7.01-9,12.07-16.8,12.07"/>
      </g>
    </g>
    <g>
      <g>
        <g>
          <path class="cls-2" d="M263.21,317.45c1.75-1.75,1.75-4.6,0-6.35-1.75-1.75-4.6-1.75-6.35,0-.35.35-.62.74-.83,1.15.15-.44.23-.91.23-1.41,0-2.48-2.01-4.49-4.49-4.49s-4.49,2.01-4.49,4.49c0,.49.08.96.23,1.41-.21-.42-.49-.81-.83-1.15-1.75-1.75-4.6-1.75-6.35,0-1.75,1.75-1.75,4.6,0,6.35.35.35.74.62,1.15.83-.44-.15-.91-.23-1.41-.23-2.48,0-4.49,2.01-4.49,4.49s2.01,4.49,4.49,4.49c.49,0,.96-.08,1.41-.23-.42.21-.81.49-1.15.83-1.75,1.75-1.75,4.6,0,6.35s4.6,1.75,6.35,0c.35-.35.62-.74.83-1.15-.15.44-.23.91-.23,1.41,0,2.48,2.01,4.49,4.49,4.49s4.49-2.01,4.49-4.49c0-.49-.08-.96-.23-1.41.21.42.49.81.83,1.15,1.75,1.75,4.6,1.75,6.35,0,1.75-1.75,1.75-4.6,0-6.35-1.75-1.75-4.6-1.75-6.35,0-1.24,1.24-1.6,3.02-1.09,4.58-.74-1.47-2.26-2.47-4.01-2.47s-3.27,1.01-4.01,2.47c.51-1.56.15-3.34-1.09-4.58-1.24-1.24-3.02-1.6-4.58-1.09,1.47-.74,2.47-2.26,2.47-4.01s-1.01-3.27-2.47-4.01c1.56.51,3.34.15,4.58-1.09,1.24-1.24,1.6-3.02,1.09-4.58.74,1.47,2.26,2.47,4.01,2.47s3.27-1.01,4.01-2.47c-.51,1.56-.15,3.34,1.09,4.58,1.75,1.75,4.6,1.75,6.35,0"/>
          <path class="cls-2" d="M253.51,320.72c.63.63,1.65.63,2.28,0s.63-1.65,0-2.28-1.65-.63-2.28,0c-.13.13-.23.27-.31.43.06-.16.09-.34.09-.52,0-.89-.72-1.61-1.61-1.61s-1.61.72-1.61,1.61c0,.18.03.36.09.52-.08-.15-.18-.3-.31-.43-.63-.63-1.65-.63-2.28,0s-.63,1.65,0,2.28c.13.13.27.23.43.31-.16-.06-.34-.09-.52-.09-.89,0-1.61.72-1.61,1.61s.72,1.61,1.61,1.61c.18,0,.36-.03.52-.09-.15.08-.3.18-.43.31-.63.63-.63,1.65,0,2.28.63.63,1.65.63,2.28,0,.13-.13.23-.27.31-.43-.06.16-.09.34-.09.52,0,.89.72,1.61,1.61,1.61s1.61-.72,1.61-1.61c0-.18-.03-.36-.09-.52.08.15.18.3.31.43.63.63,1.65.63,2.28,0s.63-1.65,0-2.28-1.65-.63-2.28,0c-.45.45-.58,1.1-.38,1.66-.26-.54-.81-.91-1.45-.91s-1.19.37-1.45.91c.19-.56.07-1.21-.38-1.66-.45-.45-1.1-.58-1.66-.38.54-.26.91-.81.91-1.45s-.37-1.19-.91-1.45c.56.19,1.21.07,1.66-.38.45-.45.58-1.1.38-1.66.26.54.81.91,1.45.91s1.19-.37,1.45-.91c-.19.56-.07,1.21.38,1.66"/>
        </g>
        <g>
          <path class="cls-2" d="M303.99,308.37c-1.38,0-2.47,1.08-2.47,2.47s1.08,2.49,2.47,2.49,2.47-1.07,2.47-2.49-1.06-2.47-2.47-2.47"/>
          <path class="cls-2" d="M294.25,310.69v22.65h4.37v-24.84h-2.17c-1.21,0-2.2.98-2.2,2.2"/>
          <path class="cls-2" d="M301.81,317.82v15.52h4.37v-17.71h-2.17c-1.21,0-2.2.98-2.2,2.2"/>
          <path class="cls-2" d="M329.82,315.11c-2.44,0-4.69,1.13-5.88,2.92-1.04-1.86-2.94-2.92-5.27-2.92s-4.28.93-5.55,2.47l-.24-1.95h-3.59v17.71h4.37v-10.67c.03-2.22,1.65-3.72,4.04-3.72,1.69,0,2.74,1.1,2.74,2.87v11.51h4.37v-10.67c.03-2.22,1.65-3.72,4.04-3.72,1.69,0,2.74,1.1,2.74,2.87v11.51h4.4v-11.71c0-3.9-2.48-6.52-6.17-6.52"/>
          <path class="cls-2" d="M349.83,326.62c0,2.07-1.78,3.52-4.33,3.52-1.18,0-3.16-.27-3.16-2.09,0-1.53,1.46-1.83,3.68-2.1,1.44-.18,2.92-.36,3.81-1.05v1.72ZM354.1,329.34v-7.78c0-3.98-2.86-6.46-7.46-6.46-2.23,0-4.21.61-5.71,1.77-1.49,1.15-2.41,2.79-2.59,4.63l-.03.3h4.39l.03-.24c.21-1.66,1.76-2.78,3.84-2.78s3.23.94,3.26,2.51c-.03.97-1.36,1.16-3.72,1.42-.19.02-.38.04-.58.06-3.74.44-7.56,1.43-7.59,5.52-.01,1.4.46,2.62,1.37,3.54,1.2,1.21,3.07,1.86,5.42,1.86,2.62,0,4.54-.86,5.7-2.55.33,1.41,1.53,2.19,3.37,2.19h2.09v-3.52h-1.21c-.48,0-.57-.18-.57-.47"/>
          <path class="cls-2" d="M280.58,329.24c-4.17,0-7.57-3.4-7.57-7.57s3.4-7.57,7.57-7.57c3.04,0,5.67,1.81,6.87,4.4h4.68c-1.39-5.07-6.04-8.81-11.55-8.81-6.6,0-11.97,5.37-11.97,11.97s5.37,11.97,11.97,11.97c5.78,0,10.61-4.11,11.73-9.56h-4.56c-1.01,2.99-3.84,5.15-7.17,5.15"/>
          <path class="cls-2" d="M363,309.76h-2.17c-1.21,0-2.2.98-2.2,2.2v3.67h-3.01v3.78h3.01v8.41c0,3.56,2.13,5.52,6.01,5.52h2.47v-3.78h-2.22c-1.26,0-1.9-.67-1.9-2v-8.15h4.44v-3.78h-4.44v-5.86Z"/>
          <path class="cls-2" d="M377.65,318.89c1.96,0,3.37,1.24,3.91,3.41h-8.09c.62-2.14,2.17-3.41,4.18-3.41M381.79,327.54c-.54,1.59-1.92,2.5-3.79,2.5-2.61,0-4.4-1.72-4.75-4.51h12.86v-1.18c-.05-2.78-.87-5.12-2.38-6.76-1.5-1.63-3.61-2.48-6.08-2.48-5.18,0-8.79,3.88-8.79,9.44s3.75,9.28,9.12,9.28c4.14,0,7.16-2.29,8.07-6.14l.08-.33h-4.26l-.06.18Z"/>
          <path class="cls-2" d="M439.9,324.32l-.05.16c-1.07,3.57-4.41,6.06-8.14,6.06-4.68,0-8.49-3.81-8.49-8.49s3.81-8.49,8.49-8.49c3.47,0,6.56,2.08,7.87,5.3l.06.14h3.38l-.09-.29c-.71-2.37-2.18-4.49-4.16-5.99-2.05-1.55-4.49-2.37-7.05-2.37-6.45,0-11.7,5.25-11.7,11.7s5.25,11.7,11.7,11.7c2.67,0,5.29-.93,7.37-2.62,2.05-1.66,3.49-3.99,4.06-6.54l.06-.28h-3.3Z"/>
          <polygon class="cls-2" points="410.03 310.66 405.78 310.66 394.61 322.52 394.61 310.66 391.38 310.66 391.38 333.63 394.61 333.63 394.61 326.8 398.57 322.66 406.45 333.51 406.53 333.63 410.53 333.63 400.81 320.31 410.03 310.66"/>
          <path class="cls-2" d="M413.09,312.32v21.31h3.23v-22.96h-1.58c-.91,0-1.65.74-1.65,1.65"/>
        </g>
      </g>
      <g>
        <g>
          <path class="cls-2" d="M85.91,322.05h-3.69v-5.55h3.69c2.07,0,3.13,1.03,3.13,2.77,0,1.58-1.06,2.78-3.13,2.78M85.59,314.65h-5.58v14.8h2.21v-5.55h3.71c3.62,0,5.32-1.98,5.32-4.63s-1.45-4.62-5.67-4.62"/>
          <path class="cls-2" d="M100.27,327.76c-3.16,0-5.05-2.54-5.05-5.71s1.89-5.71,5.05-5.71,5.05,2.54,5.05,5.71-1.89,5.71-5.05,5.71M100.27,314.49c-4.53,0-7.24,3.38-7.24,7.56s2.71,7.56,7.24,7.56,7.24-3.38,7.24-7.56-2.71-7.56-7.24-7.56"/>
          <path class="cls-2" d="M122.04,326.3c-.13.57-.17,1.26-.19,1.77,0,.13-.04.21-.17.21s-.17-.08-.17-.21c0-.51-.02-1.2-.15-1.77l-2.55-11.65h-2.36l-2.54,11.65c-.13.57-.15,1.26-.15,1.77,0,.13-.04.21-.17.21s-.17-.08-.17-.21c-.02-.51-.06-1.2-.19-1.77l-2.67-11.65h-2.36l3.7,14.8h3.2l2.23-10.58c.06-.27.1-.76.13-1.28,0-.13.04-.21.17-.21s.17.08.17.21c.02.53.06,1.01.13,1.28l2.23,10.58h3.2l3.7-14.8h-2.36l-2.67,11.65Z"/>
        </g>
        <polygon class="cls-2" points="128.92 329.45 138.88 329.45 138.88 327.6 131.15 327.6 131.15 322.97 137.5 322.97 137.5 321.12 131.15 321.12 131.15 316.5 138.88 316.5 138.88 314.65 128.92 314.65 128.92 329.45"/>
        <path class="cls-2" d="M144.01,322.05v-5.55h3.71c2.08,0,3.15.99,3.15,2.73,0,1.58-1.59,2.82-3.67,2.82h-3.19ZM149.22,323.33c-.13,0-.24-.04-.24-.19,0-.13.09-.17.21-.19,2.3-.29,3.9-1.81,3.9-3.76,0-2.65-1.5-4.54-5.7-4.54h-5.62v14.8h2.23v-5.55h2.36c2.23,0,3.39.48,3.8,2.06l.92,3.49h2.7l-1.59-4.39c-.3-.82-.88-1.62-2.98-1.72"/>
        <polygon class="cls-2" points="156.09 329.45 166.04 329.45 166.04 327.6 158.32 327.6 158.32 322.97 164.67 322.97 164.67 321.12 158.32 321.12 158.32 316.5 166.04 316.5 166.04 314.65 156.09 314.65 156.09 329.45"/>
        <g>
          <path class="cls-2" d="M174.5,327.6h-3.35v-11.1h3.35c3.51,0,4.79,2.73,4.79,5.55s-1.27,5.55-4.79,5.55M174.01,314.65h-5.06v14.8h5.06c5.44,0,7.48-3.49,7.48-7.4s-1.91-7.4-7.48-7.4"/>
          <path class="cls-2" d="M197.96,327.6h-4.65v-4.79h4.4c2,0,3.08,1.03,3.08,2.35s-1.06,2.44-2.83,2.44M193.31,316.5h4.5c1.59,0,2.29.95,2.29,2.08,0,1.28-1.04,2.38-2.8,2.38h-3.99v-4.46ZM199.76,321.92c-.13-.02-.19-.08-.19-.19,0-.13.06-.19.19-.21,1.55-.36,2.55-1.7,2.55-3.03,0-2.65-1.83-3.85-4.93-3.85h-6.29v14.8h7.26c3.06,0,4.63-1.77,4.63-4.21,0-1.49-1.13-2.96-3.23-3.32"/>
          <path class="cls-2" d="M210.66,320.81c-.13.21-.22.5-.26.78-.02.13-.04.21-.18.21s-.15-.08-.17-.21c-.04-.27-.13-.57-.26-.78l-3.76-6.16h-2.62l5.68,8.83v5.97h2.27v-5.97l5.67-8.83h-2.62l-3.76,6.16Z"/>
        </g>
        <rect class="cls-2" x="218.43" y="326.29" width="3.16" height="3.16"/>
        <rect class="cls-2" x="218.43" y="318.53" width="3.16" height="3.16"/>
      </g>
    </g>
  </g>
</svg>