<?xml version="1.0" encoding="UTF-8"?>
<svg xmlns="http://www.w3.org/2000/svg" viewBox="0 0 801.27 367.24">
  <defs>
    <style>
      .cls-1 {
        fill: none;
      }

      .cls-2 {
        fill: #f2f2f2;
      }

      .cls-3 {
        fill: #e0e56e;
      }
    </style>
  </defs>
  <g id="Vector_Logos" data-name="Vector Logos">
    <g id="Isolation_Mode" data-name="Isolation Mode">
      <g>
        <g>
          <path class="cls-3" d="M414.12,166.72c0,8.22-7.07,13.97-17.19,13.97-4.69,0-12.56-1.08-12.56-8.31,0-6.09,5.79-7.25,14.62-8.32,5.71-.72,11.59-1.45,15.13-4.15v6.81ZM399.35,151.26c-.75.08-1.51.16-2.29.25-14.84,1.73-30.03,5.68-30.16,21.89-.05,5.54,1.82,10.4,5.43,14.04,4.77,4.82,12.21,7.37,21.51,7.37,10.41,0,18.02-3.4,22.65-10.1,1.32,5.61,6.06,8.69,13.37,8.69h8.28v-13.99h-4.81c-1.89,0-2.27-.72-2.27-1.88v-30.86c0-15.81-11.36-25.64-29.64-25.64s-31.51,10.45-32.98,25.4l-.12,1.18h17.44l.12-.94c.84-6.59,6.97-11.02,15.27-11.02s12.82,3.74,12.94,9.95c-.09,3.86-5.4,4.63-14.76,5.65"/>
          <path class="cls-3" d="M484.6,178.44h-8.87c-5.04,0-7.6-2.66-7.6-7.9v-32.25h17.76v-14.97h-17.76v-23.2h-8.66c-4.86,0-8.82,3.91-8.82,8.72v14.48h-12.06v14.97h12.06v33.28c0,14.08,8.54,21.84,24.04,21.84h9.9v-14.97Z"/>
          <path class="cls-3" d="M511.19,151.23c.12-8.58,6.73-14.57,16.06-14.57,7.44,0,12.07,4.4,12.07,11.48v45.27h17.37v-46.03c0-15.83-9.89-26.05-25.19-26.05-7.85,0-15.24,2.83-20.32,7.68v-33.82h-8.61c-4.83,0-8.76,3.91-8.76,8.71v89.51h17.37v-42.18Z"/>
          <path class="cls-3" d="M581.84,157.59c0-13.01,7.25-21.42,18.47-21.42s18.34,8.41,18.34,21.42c0,13.71-7.2,22.58-18.34,22.58s-18.47-8.86-18.47-22.58M636.25,157.59c0-21.87-14.44-36.56-35.93-36.56s-36.06,14.7-36.06,36.56c0,10.87,3.28,20.19,9.48,26.95,6.46,7.04,15.65,10.76,26.59,10.76,21.83,0,35.93-14.81,35.93-37.72"/>
          <path class="cls-3" d="M682.37,121.03c-9.05,0-17.36,3.86-22.36,10.24l-1.05-8.18h-14.28v70.32h17.37v-42.35c.12-8.61,6.57-14.63,15.68-14.63,7.68,0,12.46,4.42,12.46,11.53v45.45h17.37v-46.22c0-15.89-9.89-26.16-25.19-26.16"/>
          <g>
            <path class="cls-3" d="M233.53,94.68c-5.47,0-9.75,4.28-9.75,9.75s4.28,9.86,9.75,9.86,9.75-4.24,9.75-9.86-4.19-9.75-9.75-9.75"/>
            <path class="cls-3" d="M195.02,103.87v89.53h17.26v-98.21h-8.58c-4.79,0-8.68,3.89-8.68,8.68"/>
            <path class="cls-3" d="M224.9,132.05v61.35h17.26v-70.03h-8.58c-4.79,0-8.68,3.89-8.68,8.68"/>
            <path class="cls-3" d="M335.65,121.32c-9.67,0-18.56,4.47-23.24,11.54-4.13-7.36-11.61-11.54-20.82-11.54s-16.94,3.68-21.93,9.76l-.94-7.71h-14.19v70.03h17.26v-42.17c.13-8.79,6.54-14.7,15.96-14.7,6.69,0,10.84,4.35,10.84,11.35v45.52h17.26v-42.17c.12-8.79,6.54-14.7,15.96-14.7,6.69,0,10.84,4.35,10.84,11.35v45.52h17.39v-46.29c0-15.43-9.8-25.79-24.38-25.79"/>
            <path class="cls-3" d="M140.95,177.18c-16.5,0-29.93-13.43-29.93-29.93s13.43-29.93,29.93-29.93c12.03,0,22.42,7.14,27.17,17.4h18.48c-5.51-20.05-23.89-34.82-45.66-34.82-26.1,0-47.34,21.24-47.34,47.34s21.24,47.34,47.34,47.34c22.83,0,41.94-16.25,46.37-37.79h-18.02c-4,11.83-15.19,20.38-28.36,20.38"/>
          </g>
        </g>
        <g>
          <g>
            <g>
              <path class="cls-2" d="M402.94,236.63c2.96-2.96,2.96-7.76,0-10.72-2.96-2.96-7.76-2.96-10.72,0-.59.59-1.05,1.25-1.41,1.95.25-.75.38-1.54.38-2.37,0-4.18-3.39-7.58-7.58-7.58s-7.58,3.39-7.58,7.58c0,.83.13,1.63.38,2.37-.35-.7-.82-1.36-1.41-1.95-2.96-2.96-7.76-2.96-10.72,0-2.96,2.96-2.96,7.76,0,10.72.59.59,1.25,1.05,1.95,1.41-.75-.25-1.54-.38-2.37-.38-4.18,0-7.58,3.39-7.58,7.58s3.39,7.58,7.58,7.58c.83,0,1.63-.13,2.37-.38-.7.35-1.36.82-1.95,1.41-2.96,2.96-2.96,7.76,0,10.72,2.96,2.96,7.76,2.96,10.72,0,.59-.59,1.05-1.25,1.41-1.95-.25.75-.38,1.54-.38,2.37,0,4.18,3.39,7.58,7.58,7.58s7.58-3.39,7.58-7.58c0-.83-.13-1.63-.38-2.37.35.7.82,1.36,1.41,1.95,2.96,2.96,7.76,2.96,10.72,0,2.96-2.96,2.96-7.76,0-10.72-2.96-2.96-7.76-2.96-10.72,0-2.09,2.09-2.7,5.1-1.84,7.74-1.25-2.47-3.81-4.17-6.77-4.17s-5.52,1.7-6.77,4.17c.87-2.63.26-5.64-1.84-7.74-2.09-2.09-5.1-2.7-7.74-1.84,2.47-1.25,4.17-3.81,4.17-6.77s-1.7-5.52-4.17-6.77c2.63.87,5.64.26,7.74-1.84,2.09-2.09,2.7-5.1,1.84-7.74,1.25,2.47,3.81,4.17,6.77,4.17s5.52-1.7,6.77-4.17c-.87,2.63-.26,5.64,1.84,7.74,2.96,2.96,7.76,2.96,10.72,0"/>
              <path class="cls-2" d="M386.57,242.15c1.06,1.06,2.78,1.06,3.84,0,1.06-1.06,1.06-2.78,0-3.84s-2.78-1.06-3.84,0c-.22.22-.39.46-.52.72.09-.28.15-.57.15-.88,0-1.5-1.22-2.72-2.72-2.72s-2.72,1.22-2.72,2.72c0,.31.05.6.15.88-.13-.26-.3-.51-.52-.72-1.06-1.06-2.78-1.06-3.84,0s-1.06,2.78,0,3.84c.22.22.46.39.72.52-.28-.09-.57-.15-.88-.15-1.5,0-2.72,1.22-2.72,2.72s1.22,2.72,2.72,2.72c.31,0,.6-.05.88-.15-.26.13-.51.3-.72.52-1.06,1.06-1.06,2.78,0,3.84,1.06,1.06,2.78,1.06,3.84,0,.22-.22.39-.46.52-.72-.09.28-.15.57-.15.88,0,1.5,1.22,2.72,2.72,2.72s2.72-1.22,2.72-2.72c0-.31-.05-.6-.15-.88.13.26.3.51.52.72,1.06,1.06,2.78,1.06,3.84,0,1.06-1.06,1.06-2.78,0-3.84s-2.78-1.06-3.84,0c-.76.76-.97,1.86-.64,2.81-.44-.9-1.37-1.53-2.44-1.53s-2,.62-2.44,1.53c.33-.95.11-2.05-.64-2.81-.76-.76-1.86-.97-2.81-.64.91-.44,1.53-1.37,1.53-2.44s-.62-2-1.53-2.44c.95.33,2.05.11,2.81-.64.76-.76.97-1.86.64-2.81.44.9,1.37,1.53,2.44,1.53s2-.62,2.44-1.53c-.33.95-.11,2.05.64,2.81"/>
            </g>
            <g>
              <path class="cls-2" d="M471.77,221.3c-2.33,0-4.16,1.83-4.16,4.16s1.83,4.21,4.16,4.21,4.16-1.81,4.16-4.21-1.79-4.16-4.16-4.16"/>
              <path class="cls-2" d="M455.33,225.22v38.22h7.37v-41.93h-3.66c-2.05,0-3.71,1.66-3.71,3.71"/>
              <path class="cls-2" d="M468.08,237.25v26.19h7.37v-29.9h-3.66c-2.05,0-3.7,1.66-3.7,3.71"/>
              <path class="cls-2" d="M515.36,232.67c-4.13,0-7.92,1.91-9.92,4.93-1.76-3.14-4.96-4.93-8.89-4.93s-7.23,1.57-9.36,4.17l-.4-3.29h-6.06v29.9h7.37v-18c.05-3.75,2.79-6.27,6.81-6.27,2.85,0,4.63,1.86,4.63,4.85v19.43h7.37v-18c.05-3.75,2.79-6.27,6.81-6.27,2.85,0,4.63,1.86,4.63,4.85v19.43h7.42v-19.76c0-6.59-4.18-11.01-10.41-11.01"/>
              <path class="cls-2" d="M549.13,252.1c0,3.5-3,5.94-7.31,5.94-1.99,0-5.34-.46-5.34-3.53,0-2.59,2.46-3.08,6.21-3.54,2.43-.3,4.93-.62,6.43-1.77v2.9ZM556.33,256.69v-13.12c0-6.72-4.83-10.9-12.6-10.9-3.77,0-7.1,1.04-9.64,2.99-2.52,1.94-4.07,4.71-4.37,7.81l-.05.5h7.42l.05-.4c.36-2.8,2.96-4.68,6.49-4.68s5.45,1.59,5.5,4.24c-.05,1.63-2.3,1.96-6.27,2.39-.32.03-.64.07-.98.11-6.31.73-12.76,2.41-12.82,9.31-.02,2.36.77,4.42,2.31,5.97,2.03,2.05,5.19,3.13,9.14,3.13,4.43,0,7.66-1.44,9.63-4.3.56,2.38,2.58,3.69,5.68,3.69h3.52v-5.95h-2.04c-.8,0-.96-.31-.96-.8"/>
              <path class="cls-2" d="M432.25,256.52c-7.04,0-12.78-5.73-12.78-12.78s5.73-12.78,12.78-12.78c5.14,0,9.57,3.05,11.6,7.43h7.89c-2.35-8.56-10.2-14.86-19.49-14.86-11.14,0-20.21,9.07-20.21,20.21s9.07,20.21,20.21,20.21c9.75,0,17.91-6.94,19.8-16.13h-7.69c-1.71,5.05-6.49,8.7-12.11,8.7"/>
              <path class="cls-2" d="M571.36,223.65h-3.66c-2.05,0-3.7,1.66-3.7,3.7v6.19h-5.09v6.38h5.09v14.2c0,6.01,3.6,9.32,10.14,9.32h4.18v-6.38h-3.74c-2.13,0-3.21-1.13-3.21-3.37v-13.76h7.49v-6.38h-7.49v-9.9Z"/>
              <path class="cls-2" d="M596.08,239.05c3.31,0,5.69,2.09,6.59,5.75h-13.65c1.05-3.62,3.66-5.75,7.06-5.75M603.08,253.65c-.91,2.69-3.25,4.23-6.4,4.23-4.4,0-7.43-2.9-8.02-7.61h21.71v-2c-.08-4.7-1.47-8.64-4.02-11.4-2.54-2.74-6.09-4.19-10.27-4.19-8.74,0-14.84,6.55-14.84,15.93s6.33,15.66,15.39,15.66c6.99,0,12.09-3.87,13.62-10.36l.13-.56h-7.2l-.11.31Z"/>
              <path class="cls-2" d="M701.15,248.23l-.08.27c-1.8,6.02-7.45,10.23-13.73,10.23-7.9,0-14.33-6.43-14.33-14.33s6.43-14.33,14.33-14.33c5.86,0,11.07,3.51,13.28,8.95l.1.24h5.7l-.15-.49c-1.19-3.99-3.69-7.58-7.03-10.12-3.45-2.62-7.57-4-11.9-4-10.89,0-19.75,8.86-19.75,19.75s8.86,19.75,19.75,19.75c4.51,0,8.93-1.57,12.43-4.42,3.45-2.81,5.89-6.73,6.85-11.04l.1-.47h-5.57Z"/>
              <polygon class="cls-2" points="650.73 225.17 643.57 225.17 624.71 245.18 624.71 225.17 619.25 225.17 619.25 263.93 624.71 263.93 624.71 252.41 631.39 245.43 644.69 263.74 644.83 263.93 651.59 263.93 635.17 241.45 650.73 225.17"/>
              <path class="cls-2" d="M655.89,227.97v35.96h5.46v-38.76h-2.67c-1.54,0-2.79,1.25-2.79,2.79"/>
            </g>
          </g>
          <g>
            <g>
              <path class="cls-2" d="M103.69,244.39h-6.22v-9.37h6.22c3.49,0,5.28,1.74,5.28,4.68,0,2.66-1.8,4.69-5.28,4.69M103.15,231.9h-9.42v24.98h3.74v-9.37h6.26c6.11,0,8.99-3.34,8.99-7.81s-2.45-7.81-9.56-7.81"/>
              <path class="cls-2" d="M127.92,254.03c-5.33,0-8.52-4.29-8.52-9.64s3.2-9.64,8.52-9.64,8.52,4.29,8.52,9.64-3.2,9.64-8.52,9.64M127.92,231.62c-7.64,0-12.22,5.71-12.22,12.76s4.58,12.76,12.22,12.76,12.22-5.71,12.22-12.76-4.58-12.76-12.22-12.76"/>
              <path class="cls-2" d="M164.68,251.56c-.21.96-.28,2.13-.32,2.98,0,.21-.07.36-.29.36s-.28-.14-.28-.36c0-.85-.03-2.02-.25-2.98l-4.3-19.66h-3.98l-4.29,19.66c-.21.96-.25,2.13-.25,2.98,0,.21-.07.36-.29.36s-.28-.14-.28-.36c-.03-.85-.11-2.02-.32-2.98l-4.51-19.66h-3.98l6.25,24.98h5.4l3.76-17.85c.11-.46.18-1.28.21-2.17,0-.21.07-.36.28-.36s.28.14.28.36c.03.89.11,1.7.21,2.17l3.76,17.85h5.4l6.24-24.98h-3.98l-4.51,19.66Z"/>
            </g>
            <polygon class="cls-2" points="176.29 256.88 193.09 256.88 193.09 253.76 180.06 253.76 180.06 245.95 190.77 245.95 190.77 242.83 180.06 242.83 180.06 235.02 193.09 235.02 193.09 231.9 176.29 231.9 176.29 256.88"/>
            <path class="cls-2" d="M201.75,244.39v-9.37h6.26c3.51,0,5.32,1.67,5.32,4.61,0,2.66-2.68,4.75-6.19,4.75h-5.39ZM210.55,246.55c-.22,0-.4-.07-.4-.32,0-.21.14-.29.36-.32,3.87-.5,6.59-3.05,6.59-6.35,0-4.47-2.53-7.66-9.63-7.66h-9.48v24.98h3.76v-9.37h3.98c3.76,0,5.72.82,6.41,3.48l1.56,5.89h4.56l-2.68-7.42c-.51-1.38-1.48-2.73-5.03-2.91"/>
            <polygon class="cls-2" points="222.14 256.88 238.94 256.88 238.94 253.76 225.91 253.76 225.91 245.95 236.62 245.95 236.62 242.83 225.91 242.83 225.91 235.02 238.94 235.02 238.94 231.9 222.14 231.9 222.14 256.88"/>
            <g>
              <path class="cls-2" d="M253.21,253.76h-5.65v-18.74h5.65c5.93,0,8.08,4.61,8.08,9.37s-2.15,9.37-8.08,9.37M252.38,231.9h-8.54v24.98h8.54c9.19,0,12.62-5.89,12.62-12.49s-3.22-12.49-12.62-12.49"/>
              <path class="cls-2" d="M292.8,253.76h-7.85v-8.09h7.42c3.37,0,5.2,1.74,5.2,3.97s-1.79,4.12-4.77,4.12M284.95,235.02h7.6c2.69,0,3.87,1.6,3.87,3.51,0,2.17-1.76,4.01-4.73,4.01h-6.74v-7.52ZM295.85,244.17c-.21-.03-.32-.14-.32-.32,0-.21.11-.32.32-.35,2.62-.6,4.3-2.88,4.3-5.11,0-4.47-3.08-6.49-8.31-6.49h-10.61v24.98h12.26c5.16,0,7.81-2.98,7.81-7.1,0-2.52-1.9-5-5.45-5.61"/>
              <path class="cls-2" d="M314.24,242.29c-.22.36-.37.85-.44,1.31-.04.21-.07.36-.3.36s-.26-.14-.29-.36c-.07-.46-.22-.96-.44-1.31l-6.34-10.4h-4.42l9.58,14.91v10.08h3.83v-10.08l9.58-14.91h-4.42l-6.34,10.4Z"/>
            </g>
            <rect class="cls-2" x="327.35" y="251.55" width="5.33" height="5.33"/>
            <rect class="cls-2" x="327.35" y="238.45" width="5.33" height="5.33"/>
          </g>
        </g>
      </g>
    </g>
  </g>
  <g id="Clear_space" data-name="Clear space">
    <path class="cls-1" d="M47.34,177.18c-16.5,0-29.93-13.43-29.93-29.93s13.43-29.93,29.93-29.93c12.03,0,22.42,7.14,27.17,17.4h18.48c-5.51-20.05-23.89-34.82-45.66-34.82C21.24,99.91,0,121.15,0,147.26s21.24,47.34,47.34,47.34c22.83,0,41.94-16.25,46.37-37.79h-18.02c-4,11.83-15.19,20.38-28.36,20.38"/>
    <path class="cls-1" d="M754.9,177.18c-16.5,0-29.93-13.43-29.93-29.93s13.43-29.93,29.93-29.93c12.03,0,22.42,7.14,27.17,17.4h18.48c-5.51-20.05-23.89-34.82-45.66-34.82-26.1,0-47.34,21.24-47.34,47.34s21.24,47.34,47.34,47.34c22.83,0,41.94-16.25,46.37-37.79h-18.02c-4,11.83-15.19,20.38-28.36,20.38"/>
    <path class="cls-1" d="M140.95,77.27c-16.5,0-29.93-13.43-29.93-29.93s13.43-29.93,29.93-29.93c12.03,0,22.42,7.14,27.17,17.4h18.48C181.11,14.77,162.72,0,140.95,0c-26.1,0-47.34,21.24-47.34,47.34s21.24,47.34,47.34,47.34c22.83,0,41.94-16.25,46.37-37.79h-18.02c-4,11.83-15.19,20.38-28.36,20.38"/>
    <path class="cls-1" d="M141.84,349.83c-16.5,0-29.93-13.43-29.93-29.93s13.43-29.93,29.93-29.93c12.03,0,22.42,7.14,27.17,17.4h18.48c-5.51-20.05-23.89-34.82-45.66-34.82-26.1,0-47.34,21.24-47.34,47.34s21.24,47.34,47.34,47.34c22.83,0,41.94-16.25,46.37-37.79h-18.02c-4,11.83-15.19,20.38-28.36,20.38"/>
  </g>
</svg>